<svg width="15" height="18" viewBox="0 0 15 18" fill="none" xmlns="http://www.w3.org/2000/svg">
<path fill-rule="evenodd" clip-rule="evenodd" d="M6.66981 0.818182C6.66981 0.366545 7.04181 0 7.50017 0C7.95852 0 8.33052 0.366545 8.33052 0.818182V17.1818C8.33052 17.5135 8.12791 17.8113 7.81681 17.9378C7.71495 17.9793 7.60756 18 7.50017 18C7.28427 18 7.0706 17.9171 6.91228 17.7589L0.241773 11.1589C-0.0815114 10.8393 -0.0804043 10.3211 0.243987 10.0025C0.569485 9.684 1.09538 9.684 1.41866 10.0047L6.66981 15.2007V0.818182ZM13.5813 10.0046C13.9046 9.68389 14.4305 9.68389 14.756 10.0024C15.0804 10.321 15.0815 10.8392 14.7582 11.1599L11.0792 14.7992C10.9165 14.9606 10.7039 15.0403 10.4902 15.0403C10.2787 15.0403 10.0673 14.9606 9.90454 14.8013C9.57904 14.4828 9.57793 13.9657 9.90232 13.645L13.5813 10.0046Z" fill="#4CD964"/>
</svg>
