<?xml version="1.0" encoding="utf-8"?>
<!-- Generator: Adobe Illustrator 26.1.0, SVG Export Plug-In . SVG Version: 6.00 Build 0)  -->
<svg version="1.1" id="Layer_1" xmlns="http://www.w3.org/2000/svg" xmlns:xlink="http://www.w3.org/1999/xlink" x="0px" y="0px"
	 viewBox="0 0 350 98" style="enable-background:new 0 0 350 98;" xml:space="preserve">
<style type="text/css">
	.st0{fill:url(#SVGID_1_);}
	.st1{fill:url(#SVGID_00000029045851488631181130000017553655051314735285_);}
	.st2{fill:#1B1346;}
</style>
<g>
	<g>
		<linearGradient id="SVGID_1_" gradientUnits="userSpaceOnUse" x1="114.6878" y1="22.0234" x2="40.1195" y2="97.96">
			<stop  offset="0" style="stop-color:#00FFFA"/>
			<stop  offset="0.0269" style="stop-color:#00FFFA"/>
			<stop  offset="0.4516" style="stop-color:#008BFF"/>
			<stop  offset="0.5135" style="stop-color:#157FF3"/>
			<stop  offset="0.6421" style="stop-color:#4D61D4"/>
			<stop  offset="0.8243" style="stop-color:#A431A3"/>
			<stop  offset="1" style="stop-color:#FF0070"/>
		</linearGradient>
		<path class="st0" d="M47.07,97.71l12.99-73.33h13.56l-3.25,18.33c0.48-0.1,0.96-0.19,1.43-0.19H95.2
			c8.31,0,13.84,6.78,12.32,14.99l-4.39,25.21c-1.43,8.31-9.36,14.99-17.66,14.99H47.07z M67.79,57.51l-4.49,25.21
			c-0.1,0.48,0.1,0.86,0.29,0.95c0.1,0.19,0.38,0.48,0.86,0.48h23.39c0.76,0,1.53-0.67,1.62-1.43l4.49-25.21
			c0.1-0.76-0.38-1.34-1.15-1.34H69.42C68.65,56.17,67.89,56.75,67.79,57.51z"/>
		
			<linearGradient id="SVGID_00000135649343453260060100000007673318818965599671_" gradientUnits="userSpaceOnUse" x1="79.6049" y1="-12.4273" x2="5.0367" y2="63.5093">
			<stop  offset="0" style="stop-color:#00FFFA"/>
			<stop  offset="0.0269" style="stop-color:#00FFFA"/>
			<stop  offset="0.4516" style="stop-color:#008BFF"/>
			<stop  offset="0.5135" style="stop-color:#157FF3"/>
			<stop  offset="0.6421" style="stop-color:#4D61D4"/>
			<stop  offset="0.8243" style="stop-color:#A431A3"/>
			<stop  offset="1" style="stop-color:#FF0070"/>
		</linearGradient>
		<path style="fill:url(#SVGID_00000135649343453260060100000007673318818965599671_);" d="M60.69,0L47.71,73.33H34.15L37.4,55
			c-0.48,0.1-0.96,0.19-1.43,0.19H12.57c-8.31,0-13.84-6.78-12.32-14.99l4.39-25.21C6.08,6.68,14,0,22.31,0H60.69z M39.97,40.2
			l4.49-25.21c0.1-0.48-0.1-0.86-0.29-0.95c-0.1-0.19-0.38-0.48-0.86-0.48H19.92c-0.76,0-1.53,0.67-1.62,1.43L13.81,40.2
			c-0.1,0.76,0.38,1.34,1.15,1.34h23.39C39.11,41.53,39.88,40.96,39.97,40.2z"/>
	</g>
	<g>
		<path class="st2" d="M121.7,72.53l6.2-34.9h-16.67l1.74-10.17h43.51l-1.8,10.17H138l-6.14,34.9H121.7z"/>
		<path class="st2" d="M152.13,72.66l8.43-47.61h8.8l-2.11,11.9c0.31-0.06,0.62-0.12,0.93-0.12h15.19c5.39,0,8.99,4.4,8,9.73
			l-2.85,16.36c-0.93,5.39-6.07,9.73-11.47,9.73H152.13z M165.58,46.56l-2.91,16.36c-0.06,0.31,0.06,0.56,0.19,0.62
			c0.06,0.12,0.25,0.31,0.56,0.31h15.19c0.5,0,0.99-0.43,1.05-0.93l2.91-16.36c0.06-0.5-0.25-0.87-0.74-0.87h-15.19
			C166.14,45.69,165.65,46.06,165.58,46.56z"/>
		<path class="st2" d="M200.42,72.66c-4.96,0-8.31-4.03-7.44-9.05l0.87-5.02c0.87-5.02,5.64-9.05,10.66-9.05h18.1l0.62-3.84h-23.18
			l1.55-8.86h23.55c2.29,0,4.28,0.93,5.58,2.54c1.3,1.55,1.86,3.72,1.43,5.95l-3.22,18.29c-0.87,5.02-5.64,9.05-10.66,9.05H200.42z
			 M201.97,63.85h17.91c0.06,0,0.19-0.12,0.19-0.25L221,58.4h-18.04c-0.12,0-0.25,0.06-0.25,0.19l-0.87,5.02
			C201.78,63.73,201.85,63.85,201.97,63.85z"/>
		<path class="st2" d="M241.14,72.66h-8.8l6.26-35.83h21.7c5.33,0,8.93,4.4,8,9.73l-1.24,7.13h-8.86l1.24-7.13
			c0.12-0.5-0.25-0.87-0.68-0.87h-11.96c-0.5,0-0.93,0.37-1.05,0.87L241.14,72.66z"/>
		<path class="st2" d="M271.33,70.18c-1.3-1.61-1.86-3.72-1.43-6.01l3.22-18.29c0.87-4.96,5.64-9.05,10.66-9.05h17.85
			c4.96,0,8.31,4.09,7.44,9.05l-0.87,5.08c-0.93,4.96-5.7,9.05-10.66,9.05h-18.1l-0.68,3.84h23.24l-1.55,8.8h-23.55
			C274.61,72.66,272.63,71.79,271.33,70.18z M281.06,51.15h18.04c0.12,0,0.25-0.12,0.25-0.19l0.87-5.08
			c0.06-0.06-0.06-0.19-0.12-0.19h-17.91c-0.06,0-0.19,0.12-0.25,0.19L281.06,51.15z"/>
		<path class="st2" d="M312.11,70.18c-1.3-1.61-1.86-3.72-1.43-6.01l3.22-18.29c0.87-4.96,5.64-9.05,10.66-9.05h17.85
			c4.96,0,8.31,4.09,7.44,9.05l-0.87,5.08c-0.93,4.96-5.7,9.05-10.66,9.05h-18.1l-0.68,3.84h23.24l-1.55,8.8h-23.55
			C315.4,72.66,313.42,71.79,312.11,70.18z M321.85,51.15h18.04c0.12,0,0.25-0.12,0.25-0.19l0.87-5.08
			c0.06-0.06-0.06-0.19-0.12-0.19h-17.91c-0.06,0-0.19,0.12-0.25,0.19L321.85,51.15z"/>
	</g>
</g>
</svg>
