<?xml version="1.0" encoding="utf-8"?>
<!-- Generator: Adobe Illustrator 26.1.0, SVG Export Plug-In . SVG Version: 6.00 Build 0)  -->
<svg version="1.1" id="Layer_1" xmlns="http://www.w3.org/2000/svg" xmlns:xlink="http://www.w3.org/1999/xlink" x="0px" y="0px"
	 viewBox="0 0 350 98" style="enable-background:new 0 0 350 98;" xml:space="preserve">
<style type="text/css">
	.st0{fill:url(#SVGID_1_);}
	.st1{fill:url(#SVGID_00000031886971949131801560000005836899858620739987_);}
	.st2{fill:#FFFFFF;}
</style>
<g>
	
		<linearGradient id="SVGID_1_" gradientUnits="userSpaceOnUse" x1="114.6912" y1="77.9733" x2="40.1229" y2="2.0367" gradientTransform="matrix(1 0 0 -1 0 100)">
		<stop  offset="0" style="stop-color:#00FFFA"/>
		<stop  offset="2.690000e-02" style="stop-color:#00FFFA"/>
		<stop  offset="0.4516" style="stop-color:#008BFF"/>
		<stop  offset="0.5135" style="stop-color:#157FF3"/>
		<stop  offset="0.6421" style="stop-color:#4D61D4"/>
		<stop  offset="0.8243" style="stop-color:#A431A3"/>
		<stop  offset="1" style="stop-color:#FF0070"/>
	</linearGradient>
	<path class="st0" d="M47.1,97.7l13-73.3h13.6l-3.2,18.3c0.5-0.1,1-0.2,1.4-0.2h23.4c8.3,0,13.8,6.8,12.3,15l-4.4,25.2
		c-1.4,8.3-9.4,15-17.7,15H47.1z M67.8,57.5l-4.5,25.2c-0.1,0.5,0.1,0.9,0.3,0.9c0.1,0.2,0.4,0.5,0.9,0.5h23.4
		c0.8,0,1.5-0.7,1.6-1.4L94,57.5c0.1-0.8-0.4-1.3-1.2-1.3H69.4C68.7,56.2,67.9,56.8,67.8,57.5z"/>
	
		<linearGradient id="SVGID_00000032622093649601327510000005593313452221040544_" gradientUnits="userSpaceOnUse" x1="79.6045" y1="112.4276" x2="5.0363" y2="36.4911" gradientTransform="matrix(1 0 0 -1 0 100)">
		<stop  offset="0" style="stop-color:#00FFFA"/>
		<stop  offset="2.690000e-02" style="stop-color:#00FFFA"/>
		<stop  offset="0.4516" style="stop-color:#008BFF"/>
		<stop  offset="0.5135" style="stop-color:#157FF3"/>
		<stop  offset="0.6421" style="stop-color:#4D61D4"/>
		<stop  offset="0.8243" style="stop-color:#A431A3"/>
		<stop  offset="1" style="stop-color:#FF0070"/>
	</linearGradient>
	<path style="fill:url(#SVGID_00000032622093649601327510000005593313452221040544_);" d="M60.7,0l-13,73.3H34.2L37.4,55
		c-0.5,0.1-1,0.2-1.4,0.2H12.6c-8.3,0-13.8-6.8-12.3-15L4.6,15C6.1,6.7,14,0,22.3,0H60.7z M40,40.2L44.5,15c0.1-0.5-0.1-0.9-0.3-0.9
		c-0.1-0.2-0.4-0.5-0.9-0.5H19.9c-0.8,0-1.5,0.7-1.6,1.4l-4.5,25.2c-0.1,0.8,0.4,1.3,1.1,1.3h23.4C39.1,41.5,39.9,41,40,40.2z"/>
</g>
<g>
	<path class="st2" d="M121.7,72.5l6.2-34.9h-16.7l1.7-10.2h43.5l-1.8,10.2H138l-6.1,34.9H121.7z"/>
	<path class="st2" d="M152.1,72.7l8.4-47.6h8.8L167.2,37c0.3-0.1,0.6-0.1,0.9-0.1h15.2c5.4,0,9,4.4,8,9.7l-2.9,16.4
		c-0.9,5.4-6.1,9.7-11.5,9.7L152.1,72.7L152.1,72.7z M165.6,46.6l-2.9,16.4c-0.1,0.3,0.1,0.6,0.2,0.6c0.1,0.1,0.2,0.3,0.6,0.3h15.2
		c0.5,0,1-0.4,1.1-0.9l2.9-16.4c0.1-0.5-0.2-0.9-0.7-0.9h-15.2C166.1,45.7,165.6,46.1,165.6,46.6z"/>
	<path class="st2" d="M200.4,72.7c-5,0-8.3-4-7.4-9l0.9-5c0.9-5,5.6-9,10.7-9h18.1l0.6-3.8H200l1.6-8.9h23.6c2.3,0,4.3,0.9,5.6,2.5
		c1.3,1.5,1.9,3.7,1.4,6l-3.2,18.3c-0.9,5-5.6,9-10.7,9L200.4,72.7L200.4,72.7z M202,63.8h17.9c0.1,0,0.2-0.1,0.2-0.2l0.9-5.2h-18
		c-0.1,0-0.2,0.1-0.2,0.2l-0.9,5C201.8,63.7,201.9,63.8,202,63.8z"/>
	<path class="st2" d="M241.1,72.7h-8.8l6.3-35.8h21.7c5.3,0,8.9,4.4,8,9.7l-1.2,7.1h-8.9l1.2-7.1c0.1-0.5-0.2-0.9-0.7-0.9h-12
		c-0.5,0-0.9,0.4-1.1,0.9L241.1,72.7z"/>
	<path class="st2" d="M271.3,70.2c-1.3-1.6-1.9-3.7-1.4-6l3.2-18.3c0.9-5,5.6-9,10.7-9h17.9c5,0,8.3,4.1,7.4,9l-0.9,5.1
		c-0.9,5-5.7,9-10.7,9h-18.1l-0.7,3.8H302l-1.5,8.8h-23.5C274.6,72.7,272.6,71.8,271.3,70.2z M281.1,51.2h18c0.1,0,0.2-0.1,0.2-0.2
		l0.9-5.1c0.1-0.1-0.1-0.2-0.1-0.2h-17.9c-0.1,0-0.2,0.1-0.2,0.2L281.1,51.2z"/>
	<path class="st2" d="M312.1,70.2c-1.3-1.6-1.9-3.7-1.4-6l3.2-18.3c0.9-5,5.6-9,10.7-9h17.9c5,0,8.3,4.1,7.4,9L349,51
		c-0.9,5-5.7,9-10.7,9h-18.1l-0.7,3.8h23.2l-1.5,8.8h-23.5C315.4,72.7,313.4,71.8,312.1,70.2z M321.9,51.2h18c0.1,0,0.2-0.1,0.2-0.2
		l0.9-5.1c0.1-0.1-0.1-0.2-0.1-0.2H323c-0.1,0-0.2,0.1-0.2,0.2L321.9,51.2z"/>
</g>
</svg>
