<svg width="21" height="21" viewBox="0 0 21 21" fill="none" xmlns="http://www.w3.org/2000/svg">
<path d="M10.1723 0H10.8286C10.8393 0.0089167 10.8491 0.023186 10.8598 0.0249694C11.6025 0.13197 12.1687 0.52163 12.6494 1.08427C13.4679 2.04282 14.5272 2.4298 15.7756 2.32013C17.4876 2.17122 18.8323 3.51496 18.6798 5.22697C18.6027 5.95208 18.7424 6.68376 19.081 7.32953C19.3352 7.80925 19.7123 8.18018 20.1145 8.53596C20.4096 8.78831 20.6426 9.1052 20.7955 9.46207C20.9484 9.81895 21.0172 10.2062 20.9964 10.5939C20.9696 11.4134 20.6031 12.0679 19.979 12.5931C18.9981 13.4187 18.5737 14.4798 18.6798 15.7549C18.826 17.5044 17.5099 18.8223 15.756 18.6778C15.0375 18.6058 14.3136 18.746 13.6739 19.0809C13.1942 19.3359 12.8223 19.7113 12.4666 20.1134C12.2122 20.4113 11.8921 20.6459 11.5316 20.799C11.1711 20.952 10.7799 21.0192 10.389 20.9953C9.59447 20.9632 8.948 20.6172 8.43885 20.0082C7.60067 19.0065 6.53066 18.5643 5.22881 18.6814C3.51589 18.8312 2.17213 17.4883 2.32193 15.7763C2.37181 15.2857 2.32639 14.7901 2.18818 14.3167C1.97285 13.6197 1.55165 13.0042 0.979955 12.5512C0.599616 12.2447 0.31317 11.8375 0.153366 11.3759C0.0918403 11.1976 0.0508257 11.0112 0 10.8293V10.1731C0.00891679 10.1624 0.0231808 10.1526 0.0249642 10.141C0.132857 9.39999 0.52163 8.83378 1.08428 8.35227C2.04016 7.5355 2.42893 6.47442 2.31747 5.22608C2.16767 3.51496 3.51143 2.17122 5.22256 2.32102C5.71478 2.3709 6.212 2.32487 6.6867 2.18548C7.38344 1.9697 7.9988 1.54859 8.45222 0.977273C8.75926 0.597401 9.16722 0.311834 9.62924 0.15337C9.80758 0.0918449 9.98591 0.0508252 10.1723 0Z" fill="url(#paint0_linear_1661_1051)"/>
<defs>
<linearGradient id="paint0_linear_1661_1051" x1="-13.7882" y1="-17.1471" x2="32.162" y2="-9.77338" gradientUnits="userSpaceOnUse">
<stop stop-color="#00FFFA"/>
<stop offset="0.03" stop-color="#00FFFA"/>
<stop offset="0.45" stop-color="#008BFF"/>
<stop offset="0.51" stop-color="#157FF3"/>
<stop offset="0.64" stop-color="#4D61D4"/>
<stop offset="0.82" stop-color="#A431A3"/>
<stop offset="1" stop-color="#FF0070"/>
</linearGradient>
</defs>
</svg>
