<?xml version="1.0" standalone="no"?>
<!DOCTYPE svg PUBLIC "-//W3C//DTD SVG 20010904//EN"
 "http://www.w3.org/TR/2001/REC-SVG-20010904/DTD/svg10.dtd">
<svg version="1.0" xmlns="http://www.w3.org/2000/svg"
 width="552.000000pt" height="552.000000pt" viewBox="0 0 552.000000 552.000000"
 preserveAspectRatio="xMidYMid meet">
<metadata>
Created by potrace 1.14, written by Peter Selinger 2001-2017
</metadata>
<g transform="translate(0.000000,552.000000) scale(0.100000,-0.100000)"
fill="#000000" stroke="none">
<path d="M995 5245 c-236 -51 -431 -176 -576 -368 -96 -127 -160 -284 -185
-452 -3 -22 -15 -92 -26 -155 -11 -63 -22 -125 -23 -137 -2 -12 -6 -34 -9 -50
-3 -15 -8 -44 -11 -63 -17 -103 -84 -488 -90 -510 0 -3 -4 -26 -8 -51 -13 -76
-17 -102 -27 -154 -22 -117 -25 -146 -25 -250 0 -86 6 -126 23 -182 74 -239
270 -400 522 -430 30 -4 349 -7 707 -7 l652 -1 -5 -30 c-2 -16 -15 -91 -29
-165 -13 -74 -27 -151 -30 -170 -3 -19 -8 -42 -10 -50 -2 -8 -7 -33 -10 -55
-3 -23 -8 -52 -10 -65 -3 -14 -8 -41 -11 -60 -9 -56 -20 -121 -38 -215 -2 -11
-7 -42 -10 -70 l-7 -50 340 1 c188 0 343 3 346 6 3 3 8 16 10 29 3 13 7 35 10
49 2 14 7 41 10 60 3 19 17 96 30 170 13 74 33 187 44 250 11 63 25 140 30
170 6 30 13 71 16 90 7 42 16 97 21 125 4 20 13 72 79 445 35 195 46 256 51
275 1 6 5 28 8 50 4 23 8 52 11 65 3 13 11 63 20 110 8 47 17 96 19 110 3 14
12 66 21 115 23 135 24 143 40 230 8 44 17 96 20 115 3 19 22 123 41 230 19
107 37 209 40 225 3 17 20 116 39 220 18 105 37 210 41 235 4 25 8 47 9 50 1
3 5 25 9 50 4 25 16 91 27 148 10 57 19 110 19 118 0 12 -133 14 -1027 13
-806 -1 -1041 -4 -1088 -14z m1258 -690 c29 -13 34 -43 20 -119 -8 -39 -16
-87 -19 -106 -3 -19 -9 -58 -15 -86 -5 -28 -12 -64 -15 -80 -2 -16 -9 -51 -14
-79 -5 -27 -12 -66 -16 -85 -3 -19 -10 -60 -15 -90 -5 -30 -14 -82 -20 -115
-18 -110 -20 -120 -29 -160 -5 -22 -11 -58 -14 -80 -4 -22 -14 -78 -22 -125
-9 -47 -17 -92 -19 -100 -1 -8 -6 -35 -10 -60 -11 -73 -25 -109 -48 -122 -16
-9 -180 -12 -641 -13 -538 0 -622 2 -638 15 -21 17 -24 37 -15 90 17 95 37
208 42 230 2 13 7 40 10 60 3 20 7 47 10 60 3 14 8 41 11 60 4 19 8 44 10 55
2 11 9 47 14 80 15 88 19 114 30 170 17 82 18 91 25 142 4 26 11 64 15 83 5
19 11 51 14 70 24 152 47 261 58 279 7 12 26 25 42 29 40 11 1226 8 1249 -3z"/>
<path d="M3071 3960 c-6 -30 -13 -71 -16 -90 -3 -19 -17 -98 -31 -175 -21
-121 -41 -230 -58 -325 -2 -14 -9 -54 -16 -90 -6 -36 -13 -76 -16 -90 -46
-265 -105 -600 -108 -615 -2 -11 -7 -40 -11 -65 -4 -25 -9 -54 -11 -65 -2 -11
-15 -85 -30 -165 -14 -80 -32 -179 -39 -220 -16 -80 -21 -112 -30 -175 -4 -22
-8 -47 -10 -55 -3 -8 -18 -96 -35 -195 -17 -99 -33 -191 -36 -205 -39 -214
-67 -371 -71 -395 -3 -16 -20 -115 -38 -220 -19 -104 -36 -206 -40 -225 -3
-19 -10 -57 -15 -85 -5 -27 -12 -63 -15 -80 -2 -16 -9 -54 -15 -84 -5 -29 -10
-60 -10 -67 0 -12 163 -14 1008 -14 622 0 1034 4 1077 10 86 13 218 59 302
106 70 39 191 133 239 185 110 122 205 296 227 420 22 116 48 261 52 294 4 22
8 47 10 55 2 8 7 31 10 50 3 19 7 46 10 60 3 14 7 41 10 60 3 19 12 71 20 115
19 105 23 129 35 200 5 33 12 74 15 90 3 17 17 95 31 175 14 80 31 179 39 220
8 42 12 121 11 180 -5 176 -64 312 -189 433 -71 69 -208 139 -307 158 -73 14
-1334 21 -1382 8 -16 -4 -28 -5 -28 -2 0 7 37 225 45 263 3 14 8 41 11 60 4
19 8 44 10 55 10 53 24 134 29 165 3 19 19 113 36 208 17 95 28 176 25 179 -3
3 -159 7 -345 7 l-339 1 -11 -55z m1724 -1590 c22 -18 19 -57 -22 -280 -8 -47
-17 -94 -19 -105 -2 -11 -8 -45 -13 -75 -6 -30 -17 -95 -26 -145 -9 -49 -21
-115 -26 -145 -5 -30 -11 -66 -14 -80 -5 -27 -23 -125 -29 -162 -14 -89 -19
-115 -23 -133 -2 -11 -13 -69 -23 -130 -16 -88 -24 -114 -45 -135 l-25 -25
-621 0 c-579 -1 -622 0 -641 17 -25 21 -25 38 -4 148 8 47 18 102 22 124 3 21
8 48 10 60 2 11 11 59 19 106 8 47 17 96 20 110 3 14 7 39 10 55 3 17 7 41 10
55 3 14 7 41 10 60 7 41 23 135 30 170 4 21 18 101 40 230 3 14 7 36 10 50 2
14 6 36 9 50 22 135 34 167 68 186 10 5 271 9 636 9 528 0 622 -2 637 -15z"/>
</g>
</svg>
